<?xml version="1.0" encoding="UTF-8" standalone="no"?>
<!DOCTYPE svg PUBLIC "-//W3C//DTD SVG 1.1//EN" "http://www.w3.org/Graphics/SVG/1.1/DTD/svg11.dtd">
<svg width="100%" height="100%" viewBox="0 0 81 81" version="1.1" xmlns="http://www.w3.org/2000/svg" xmlns:xlink="http://www.w3.org/1999/xlink" xml:space="preserve" xmlns:serif="http://www.serif.com/" style="fill-rule:evenodd;clip-rule:evenodd;stroke-linejoin:round;stroke-miterlimit:2;">
    <g transform="matrix(1,0,0,1,-415.332,-30.4947)">
        <g transform="matrix(1.12935,0,0,1.12935,-41.7086,-912.512)">
            <rect x="404.693" y="834.999" width="71.257" height="71.257" style="fill:rgb(187,128,43);"/>
        </g>
        <g transform="matrix(0.0979917,0,0,0.0979917,360.908,-117.113)">
            <g transform="matrix(0.983318,0,0,0.983318,-66.4766,1047.92)">
                <path d="M1050,853.385L935.872,778.477L832.636,778.477L832.636,1114.63L935.042,1181.84L935.042,1181.73L989.961,1217.72L935.042,1115.28L935.042,908.043L1050,983.496L1164.96,908.043L1164.96,1115.28L1110.04,1217.72L1164.96,1181.73L1164.96,1181.84L1267.36,1114.63L1267.36,778.477L1164.13,778.477L1050,853.385Z" style="fill:white;fill-opacity:0.4;fill-rule:nonzero;"/>
            </g>
            <g transform="matrix(0.983318,0,0,0.983318,-66.4766,1047.92)">
                <path d="M1176.13,630.959C1177.45,634.864 1178.2,639.032 1178.2,643.382C1178.2,664.834 1160.81,682.225 1139.35,682.225C1117.9,682.225 1100.51,664.834 1100.51,643.382C1100.51,632.334 1105.15,622.387 1112.55,615.314L1050,549.817L987.45,615.314C994.854,622.387 999.489,632.334 999.489,643.382C999.489,664.834 982.099,682.225 960.646,682.225C939.194,682.225 921.803,664.834 921.803,643.382C921.803,639.032 922.55,634.864 923.869,630.959L832.636,600.142L832.636,711.051L1267.36,711.051L1267.36,600.142L1176.13,630.959Z" style="fill:white;fill-opacity:0.4;fill-rule:nonzero;"/>
            </g>
            <g transform="matrix(0.983318,0,0,0.983318,-66.4766,1047.92)">
                <rect x="832.636" y="733.526" width="434.724" height="18.567" style="fill:white;fill-opacity:0.4;fill-rule:nonzero;"/>
            </g>
            <g transform="matrix(0.983318,0,0,0.983318,-66.4766,1047.92)">
                <path d="M1164.96,908.043L1164.96,1115.28L1110.04,1217.72L1164.96,1181.73L1164.96,1181.84L1267.36,1114.63L1267.36,778.477L1164.13,778.477L1050,853.385L1050,983.496L1164.96,908.043Z" style="fill:white;fill-rule:nonzero;"/>
            </g>
            <g transform="matrix(0.983318,0,0,0.983318,-66.4766,1047.92)">
                <path d="M1267.36,711.051L1267.36,600.142L1176.13,630.959C1177.45,634.864 1178.2,639.032 1178.2,643.382C1178.2,664.834 1160.81,682.225 1139.35,682.225C1117.9,682.225 1100.51,664.834 1100.51,643.382C1100.51,632.334 1105.15,622.387 1112.55,615.314L1050,549.817L1050,711.051L1267.36,711.051Z" style="fill:white;fill-rule:nonzero;"/>
            </g>
            <g transform="matrix(0.983318,0,0,0.983318,-66.4766,1047.92)">
                <rect x="1050" y="733.526" width="217.36" height="18.567" style="fill:white;fill-rule:nonzero;"/>
            </g>
        </g>
    </g>
</svg>
